<?xml version="1.0" standalone="no"?>
<!DOCTYPE svg PUBLIC "-//W3C//DTD SVG 20010904//EN" "http://www.w3.org/TR/2001/REC-SVG-20010904/DTD/svg10.dtd">
<svg version="1.0" xmlns="http://www.w3.org/2000/svg" width="608.000000pt" height="608.000000pt" viewBox="0 0 608.000000 608.000000" preserveAspectRatio="xMidYMid meet">
  <metadata>
    Created by potrace 1.11, written by Peter Selinger 2001-2013
  </metadata>
  <g transform="translate(0.000000,608.000000) scale(0.100000,-0.100000)" fill="#000000" stroke="none">
    <path d="M4193 6053 c-55 -60 -141 -281 -189 -485 -11 -48 -15 -65 -19 -93 -15 -89 -22 -98 -65 -90 -85 16 -919 25 -1170 12 -192 -10 -360 -21 -480 -32 -78 -7 -89 -8 -210 -20 -144 -15 -130 -21 -162 70 -35 98 -100 234 -141 295 -108 161 -234 247 -296 203 -40 -27 -72 -119 -86 -244 -4 -35 -9 -77 -11 -94 -7 -63 -16 -366 -29 -964 -2 -135 -2 -135 -31 -159 -178 -151 -322 -298 -424 -432 -14 -18 -35 -44 -46 -59 -49 -60 -159 -240 -223 -363 -74 -144 -174 -393 -196 -488 -2 -8 -15 -64 -30 -125 -15 -60 -27 -123 -28 -139 -2 -29 -1 -30 58 -32 64 -3 166 -9 360 -20 66 -4 134 -7 150 -8 24 -1 37 -11 69 -56 46 -64 185 -237 236 -295 127 -142 341 -343 476 -445 32 -25 61 -47 64 -51 3 -3 41 -30 85 -59 44 -30 82 -57 85 -60 3 -3 16 -12 30 -19 14 -8 66 -39 115 -69 99 -60 328 -177 415 -212 30 -12 69 -28 85 -36 85 -38 277 -101 300 -99 6 0 20 6 33 13 12 7 22 10 22 8 0 -9 132 67 274 157 43 27 274 192 313 223 23 19 46 34 51 34 6 0 12 3 14 8 2 4 23 23 48 42 25 19 50 39 56 45 6 5 39 35 74 65 113 99 306 279 424 396 106 106 323 337 438 469 67 77 157 231 173 297 7 26 18 31 134 67 119 38 193 59 234 67 10 2 27 6 37 9 21 7 28 8 135 30 44 9 90 18 102 20 l22 5 -26 63 c-38 93 -127 269 -180 355 -30 49 -108 167 -113 172 -3 3 -17 21 -30 40 -92 135 -327 377 -480 495 -36 28 -70 55 -77 60 -6 6 -28 21 -47 35 -20 14 -36 34 -37 45 -1 11 -2 38 -4 60 -1 22 -5 72 -9 110 -4 39 -9 90 -11 115 -4 41 -9 83 -20 180 -3 19 -7 58 -11 85 -3 28 -7 64 -9 80 -2 17 -6 53 -10 80 -3 28 -7 61 -9 75 -3 14 -7 45 -10 70 -4 25 -8 56 -11 70 -3 14 -7 42 -10 63 -15 108 -21 148 -41 257 -10 55 -13 72 -18 109 -12 80 -38 121 -76 121 -6 0 -22 -12 -37 -27z m-1807 -2264 c11 -11 25 -19 30 -19 5 0 21 -11 36 -25 15 -14 30 -25 33 -25 3 0 33 -18 65 -40 92 -62 100 -96 30 -124 -21 -8 -49 -13 -61 -11 -13 3 -38 6 -57 7 -18 1 -36 6 -38 10 -3 4 -14 8 -24 8 -10 0 -22 5 -25 11 -5 7 18 10 71 9 123 -3 123 -3 94 17 -39 28 -149 134 -194 188 -39 47 -39 49 -11 31 17 -10 39 -27 51 -37z m1087 -21 c-15 -24 -42 -64 -60 -90 -18 -26 -33 -50 -33 -53 0 -3 33 -3 73 1 102 8 107 8 107 -5 0 -8 -84 -38 -133 -46 -15 -3 -39 -7 -53 -9 -66 -12 -66 19 0 99 23 27 46 55 51 62 6 6 23 28 39 47 38 48 42 45 9 -6z m1042 -578 l0 -145 -65 -56 c-125 -108 -468 -455 -627 -636 -43 -48 -80 -90 -83 -93 -3 -3 -38 -43 -79 -90 -95 -108 -331 -344 -436 -435 -44 -39 -82 -72 -85 -76 -3 -3 -43 -35 -90 -73 -108 -85 -108 -86 -152 -118 l-36 -28 -15 23 c-25 38 -79 90 -147 142 -36 28 -67 53 -70 56 -3 3 -50 36 -105 74 -126 86 -169 118 -173 128 -2 4 -8 7 -12 7 -8 0 -269 188 -330 237 -8 7 -70 55 -138 108 -68 52 -133 105 -145 116 -12 12 -44 40 -71 62 -27 23 -120 113 -207 199 l-158 157 0 191 1 190 26 1 c15 0 34 2 42 4 17 3 72 11 150 21 30 3 62 8 70 9 8 1 44 6 80 9 36 4 81 9 101 12 20 2 56 6 80 9 75 7 163 17 179 20 23 4 180 18 217 19 18 1 33 3 33 6 0 3 15 5 33 5 17 1 75 4 127 9 52 4 118 9 145 11 28 3 79 7 115 10 36 3 102 8 146 10 45 2 110 7 145 9 61 5 183 12 369 21 47 3 177 7 290 11 113 3 206 7 207 7 1 1 151 2 335 2 l333 0 0 -145z"/>
    <path d="M2976 3169 c-65 -10 -148 -48 -171 -78 -24 -32 -28 -78 -9 -110 17 -28 116 -96 176 -119 35 -14 38 -13 80 16 38 26 68 56 119 119 17 22 23 102 9 127 -20 39 -110 59 -204 45z"/>
    <path d="M3362 2713 c-40 -61 -104 -128 -143 -148 -27 -14 -69 -19 -122 -14 -26 3 -93 65 -118 109 -13 22 -25 40 -29 40 -3 0 -13 -13 -23 -28 -43 -73 -123 -127 -217 -147 -49 -10 -62 -9 -120 12 -82 30 -162 82 -220 145 -25 26 -51 48 -57 48 -20 0 -21 -24 -1 -53 11 -15 22 -42 24 -60 14 -91 90 -311 150 -431 104 -206 218 -296 381 -298 147 -3 232 109 220 290 -9 135 -27 217 -73 319 -29 66 -29 71 -6 50 9 -8 39 -25 65 -36 68 -29 133 -18 205 37 43 31 42 30 106 112 38 48 47 66 39 78 -17 29 -30 23 -61 -25z"/>
    <path d="M5520 2848 c-88 -56 -233 -150 -245 -160 -5 -4 -35 -26 -65 -47 -30 -22 -60 -44 -65 -48 -6 -4 -28 -21 -50 -38 -22 -16 -47 -35 -55 -42 -8 -7 -46 -38 -85 -69 -169 -137 -342 -300 -414 -392 -41 -53 -68 -122 -77 -198 -8 -64 -13 -1627 -6 -1657 3 -10 8 -15 11 -10 3 5 28 25 56 44 183 127 392 322 522 486 15 19 38 47 51 62 33 38 169 244 208 315 103 185 225 483 249 605 2 11 6 25 9 29 5 8 7 19 21 85 51 253 57 308 58 552 2 182 -3 287 -18 385 -19 119 -24 140 -33 140 -4 0 -36 -19 -72 -42z"/>
    <path d="M325 2210 c4 -50 8 -101 11 -113 2 -12 6 -43 9 -68 3 -25 8 -56 10 -70 3 -13 8 -40 11 -59 17 -109 102 -396 156 -522 77 -180 238 -464 320 -562 10 -12 48 -59 85 -106 62 -78 203 -225 299 -310 98 -89 299 -233 415 -299 75 -42 71 -43 56 24 -4 17 -9 42 -12 57 -3 16 -7 39 -10 53 -3 14 -7 35 -9 47 -3 13 -11 59 -20 103 -39 197 -88 452 -92 475 -2 14 -9 45 -14 70 -5 25 -12 56 -14 70 -4 22 -17 88 -30 146 -2 12 -7 37 -10 55 -7 42 -13 75 -23 114 -3 17 -8 39 -9 50 -1 11 -11 67 -23 125 -28 136 -30 149 -37 185 -14 81 -55 279 -59 285 -5 7 -22 15 -125 53 -30 11 -64 23 -75 28 -11 4 -72 26 -135 49 -63 23 -137 50 -165 60 -27 10 -81 29 -120 41 -38 12 -79 25 -90 30 -57 22 -212 65 -268 74 l-37 6 5 -91z"/>
  </g>
</svg>
