<svg width="23" height="30" fill="none" xmlns="http://www.w3.org/2000/svg"><mask id="a" fill="#fff"><path d="M18.188 30c-.45 0-.813-.28-.813-.625V.625c0-.346.363-.625.813-.625.449 0 .812.28.812.625v28.75c0 .346-.363.625-.813.625z"/><path d="M22.297 19.375H18.08c-.389 0-.703-.28-.703-.625 0-.346.314-.625.703-.625h3.511C21.498 7.624 19.004 3.714 18 3.5c-.388 0-.63-2.53-.63-2.876 0-.345.321-.624.71-.624C21.024 0 23 9.695 23 18.75c0 .346-.314.625-.703.625zM6 11.25c-2.756 0-5-1.963-5-4.375V.625C1 .279 1.32 0 1.714 0c.395 0 .883.28.883.625v6.25C2.597 8.598 4.03 9.5 6 9.5c1.97 0 3.5-1 3.5-2.5V.625c0-.346.39-.625.786-.625.395 0 .714.28.714.625v6.25c0 2.412-2.244 4.375-5 4.375z"/><path d="M6 30c-.553 0-1-.28-1-.625V.625C5 .279 5.447 0 6 0c.553 0 1 .28 1 .625v28.75c0 .346-.447.625-1 .625z"/></mask><path d="M21.591 18.125v6h6.054l-.054-6.053-6 .053zM18 3.5l1.249-5.869-.618-.131H18v6zM17.37.624h6-6zM18.188 24c.981 0 2.092.298 3.084 1.061 1 .77 2.104 2.244 2.104 4.314h-12c0 5.028 4.608 6.625 6.813 6.625V24zm5.188 5.375V.625h-12v28.75h12zm0-28.75a5.441 5.441 0 01-2.104 4.314A5.057 5.057 0 0118.187 6V-6c-2.204 0-6.812 1.597-6.812 6.625h12zM18.187 6c-.98 0-2.091-.298-3.083-1.061A5.441 5.441 0 0113 .625h12C25-4.403 20.392-6 18.187-6V6zM13 .625v28.75h12V.625H13zm0 28.75a5.441 5.441 0 012.104-4.314A5.057 5.057 0 0118.188 24v12C20.392 36 25 34.403 25 29.375H13zm9.297-16H18.08v12h4.217v-12zm-4.217 0c2.243 0 5.297 1.764 5.297 5.375h-12c0 4.302 3.682 6.625 6.703 6.625v-12zm5.297 5.375c0 3.611-3.054 5.375-5.297 5.375v-12c-3.02 0-6.703 2.323-6.703 6.625h12zm-5.297 5.375h3.511v-12H18.08v12zm9.511-6.053c-.05-5.68-.748-9.929-1.753-12.989-.498-1.517-1.12-2.89-1.885-4.029A9.397 9.397 0 0022.45-.703c-.55-.495-1.629-1.331-3.201-1.666L16.75 9.37c-1.321-.282-2.102-.949-2.324-1.148-.3-.27-.432-.471-.437-.478-.012-.018.184.283.447 1.083.516 1.574 1.112 4.53 1.155 9.352l12-.106zM18-2.5c1.71 0 2.974.719 3.696 1.301A5.684 5.684 0 0122.947.207c.353.564.493 1.023.509 1.073.06.187.048.21.008-.042-.032-.194-.06-.42-.08-.618-.03-.298-.013-.246-.013.004h-12c0 .634.115 1.711.245 2.522.069.424.19 1.1.404 1.773.094.292.316.952.756 1.655.175.28 1.78 2.926 5.224 2.926v-12zM23.37.624C23.37 4.304 20.246 6 18.08 6V-6c-2.943 0-6.71 2.254-6.71 6.624h12zM18.08 6c-2.779 0-3.644-2.147-3.201-1.37.197.345.56 1.22.934 2.763C16.539 10.387 17 14.585 17 18.75h12c0-4.89-.527-10.067-1.525-14.184-.488-2.012-1.171-4.127-2.173-5.883C24.547-2.64 22.33-6 18.08-6V6zM17 18.75c0-3.611 3.054-5.375 5.297-5.375v12c3.02 0 6.703-2.323 6.703-6.625H17zM6 5.25c.038 0 .201.013.417.201.227.199.583.686.583 1.424H-5C-5 13.328.707 17.25 6 17.25v-12zm1 1.625V.625H-5v6.25H7zm0-6.25C7 4.321 3.855 6 1.714 6V-6C-1.216-6-5-3.762-5 .625H7zM1.714 6a4.885 4.885 0 01-2.716-.81A5.452 5.452 0 01-3.403.625h12c0-3.103-2.076-4.847-2.988-5.45A7.116 7.116 0 001.714-6V6zM-3.403.625v6.25h12V.625h-12zm0 6.25c0 2.757 1.257 5.224 3.428 6.807C1.972 15.102 4.201 15.5 6 15.5v-12c-.17 0 .357-.052 1.095.485.401.293.814.732 1.111 1.32.298.59.39 1.15.39 1.57h-12zM6 15.5c1.927 0 4.071-.48 5.915-1.762C13.864 12.382 15.5 10.045 15.5 7h-12c0-.683.184-1.364.522-1.956.326-.57.726-.938 1.04-1.157.31-.215.565-.308.705-.346A.921.921 0 016 3.5v12zM15.5 7V.625h-12V7h12zm0-6.375a5.436 5.436 0 01-2.098 4.315A5.095 5.095 0 0110.286 6V-6c-1.541 0-3.02.52-4.198 1.426C4.93-3.684 3.5-1.93 3.5.625h12zM10.286 6C8.145 6 5 4.32 5 .625h12C17-3.762 13.217-6 10.286-6V6zM5 .625v6.25h12V.625H5zm0 6.25c0-.738.356-1.225.583-1.424.216-.188.379-.201.417-.201v12c5.293 0 11-3.922 11-10.375H5zM6 24c.665 0 1.556.156 2.473.73.835.521 2.527 2.008 2.527 4.645H-1c0 2.983 1.915 4.782 3.113 5.53A7.345 7.345 0 006 36V24zm5 5.375V.625H-1v28.75h12zm0-28.75c0 2.638-1.692 4.124-2.527 4.646A4.659 4.659 0 016 6V-6a7.345 7.345 0 00-3.887 1.095C.915-4.157-1-2.358-1 .625h12zM6 6a4.659 4.659 0 01-2.473-.73C2.692 4.75 1 3.264 1 .626h12c0-2.983-1.915-4.782-3.113-5.53A7.345 7.345 0 006-6V6zM1 .625v28.75h12V.625H1zm0 28.75c0-2.637 1.692-4.123 2.527-4.646A4.659 4.659 0 016 24v12a7.345 7.345 0 003.887-1.095c1.198-.748 3.113-2.547 3.113-5.53H1z" fill="#fff" mask="url(#a)"/></svg>