<svg width="22" height="22" viewBox="0 0 22 22" xmlns="http://www.w3.org/2000/svg">
  <path d="M10.1591 2.79256C11.1131 1.85708 12.405 1.33325 13.75 1.33325H16.5C16.7762 1.33325 17 1.55711 17 1.83325V5.4286C17 5.70474 16.7762 5.9286 16.5 5.9286H13.75C13.6364 5.9286 13.5293 5.97295 13.4519 6.04887C13.3748 6.12445 13.3334 6.22486 13.3334 6.32743V8.52394H16.5C16.6544 8.52394 16.8001 8.59525 16.8948 8.71715C16.9896 8.83906 17.0227 8.99788 16.9845 9.14747L16.0679 12.7428C16.0114 12.9643 15.8119 13.1193 15.5834 13.1193H13.3334V19.81C13.3334 20.0861 13.1095 20.31 12.8334 20.31H9.16669C8.89054 20.31 8.66669 20.0861 8.66669 19.81V13.1193H6.41669C6.14054 13.1193 5.91669 12.8954 5.91669 12.6193V9.02394C5.91669 8.7478 6.14054 8.52394 6.41669 8.52394H8.66669V6.32743C8.66669 4.99969 9.20469 3.72836 10.1591 2.79256ZM13.75 2.33325C12.6639 2.33325 11.6242 2.7564 10.8592 3.50658C10.0945 4.25642 9.66669 5.27131 9.66669 6.32743V9.02394C9.66669 9.30008 9.44283 9.52394 9.16669 9.52394H6.91669V12.1193H9.16669C9.44283 12.1193 9.66669 12.3431 9.66669 12.6193V19.31H12.3334V12.6193C12.3334 12.3431 12.5572 12.1193 12.8334 12.1193H15.1948L15.8565 9.52394H12.8334C12.5572 9.52394 12.3334 9.30008 12.3334 9.02394V6.32743C12.3334 5.95323 12.485 5.59639 12.7518 5.33485C13.0182 5.07364 13.3774 4.9286 13.75 4.9286H16V2.33325H13.75Z"/>
</svg>
