<svg  width="202" height="59" viewBox="0 0 202 59" fill="none" xmlns="http://www.w3.org/2000/svg">
  <style>
    .desktop {
      display: none;
    }

    @media (min-width: 202px) {
      .desktop {
        display: block;
      }
    }
  </style>
  <g clip-path="url(#clip0)">
    <mask id="mask0" mask-type="alpha" maskUnits="userSpaceOnUse" x="19" y="8" width="35" height="34">
      <circle cx="36.35" cy="24.85" r="16.75" fill="#FDC305"/>
    </mask>
    <g class="mobile-bg" mask="url(#mask0)">
      <path d="M59.8824 23.6598C58.1585 19.5627 55.3821 15.9853 51.8299 13.284C48.2778 10.5828 44.0739 8.85208 39.6373 8.26439C35.2007 7.6767 30.6863 8.25256 26.544 9.93456C22.4017 11.6166 18.7761 14.346 16.0286 17.8508C13.2811 21.3556 11.5076 25.5134 10.8849 29.9099C10.2622 34.3064 10.8119 38.7879 12.4794 42.908C14.1469 47.0281 16.8739 50.6427 20.3886 53.3917C23.9033 56.1408 28.083 57.9281 32.5111 58.5758C31.9311 56.5026 31.341 54.2113 30.821 51.781C32.3338 52.7544 33.9261 53.6005 35.5812 54.3105V54.3105C35.5812 54.3105 35.7012 56.453 35.8613 58.8436C37.6496 58.8742 39.4362 58.7179 41.1915 58.3774C41.1462 58.1281 41.1462 57.8728 41.1915 57.6235C41.4815 55.7686 42.2816 52.4258 42.4416 50.2733C43.5949 49.2033 44.5733 47.9617 45.3417 46.5933V46.5933L45.2817 47.0297C44.7317 51.2553 43.5816 55.7686 42.8816 57.0184C42.655 57.4321 42.376 57.8155 42.0516 58.1592C45.6715 57.3168 49.0635 55.7037 51.9923 53.4316C54.9211 51.1595 57.3167 48.2827 59.013 45.0008C60.7092 41.7189 61.6656 38.1103 61.8157 34.4252C61.9658 30.7402 61.3062 27.0668 59.8824 23.6598V23.6598ZM58.4124 27.4192C57.9723 27.8458 57.0623 28.1334 56.9123 26.8439C56.7623 25.5544 56.7223 24.6518 56.7223 24.6518C56.7223 24.6518 54.7922 21.2494 54.0721 21.2098C53.3521 21.1701 48.2419 24.6518 46.8918 26.1694C45.7217 27.449 45.4917 27.3597 45.4917 29.6114C45.4917 31.3076 45.7117 37.7155 45.5917 42.6156L37.4413 44.7681C34.8795 45.4973 32.2743 46.0672 29.6409 46.4742L28.6409 40.6913H28.5009L25.9308 27.6275C25.9308 27.6275 22.1206 26.1992 20.7205 25.8123C20.0631 25.527 19.3372 25.4343 18.6283 25.545C17.9195 25.6558 17.2575 25.9653 16.7203 26.4372C16.1723 26.9132 15.7341 27.5006 15.4355 28.1596C15.137 28.8186 14.9851 29.5337 14.9902 30.2562C15.2016 30.7172 15.3625 31.1994 15.4702 31.6945C15.5202 32.1706 14.2702 32.121 13.4701 32.121C12.6701 32.121 12.5501 30.6926 13.1801 29.0162C13.6717 27.7272 14.2809 26.4855 15.0002 25.3064C15.5413 24.2532 16.2391 23.2868 17.0703 22.4398C17.0703 22.4398 17.2103 22.1025 18.3204 22.2017C19.4304 22.3009 25.6007 22.6282 25.6007 22.6282L25.6507 20.3765C32.3574 19.458 39.1215 19.0139 45.8917 19.0474C45.8917 19.6524 45.8917 20.2575 45.8917 20.8626C48.4561 19.7018 51.2174 19.0289 54.0321 18.8787C54.1828 18.8749 54.3319 18.9083 54.4663 18.9758C54.6007 19.0434 54.7161 19.1429 54.8022 19.2656C55.1422 19.6921 57.2123 22.2414 57.4523 22.6084C58.1246 23.5613 58.7358 24.5552 59.2824 25.5842C59.0951 26.2357 58.8011 26.8523 58.4124 27.4093V27.4192Z" fill="#FDC305"/>
      <path d="M56.4628 21.3486C56.9328 21.9438 57.3428 22.4695 57.4628 22.6282C58.1351 23.5812 58.7463 24.5751 59.2929 25.604C59.1027 26.2341 58.8123 26.8302 58.4329 27.3696C57.9929 27.7962 57.0828 28.0838 56.9328 26.7943C56.7828 25.5048 56.7228 24.6518 56.7228 24.6518C56.7228 24.6518 54.7927 21.2494 54.0727 21.2098C53.3526 21.1701 48.2424 24.6518 46.8923 26.1694C45.7223 27.449 45.4923 27.3597 45.4923 29.6114C45.4923 31.0993 45.6623 36.2077 45.6223 40.7508C47.4323 40.9492 50.0925 41.4451 50.8925 42.6156C50.8925 42.6156 50.6025 35.4936 58.7029 39.2232C58.7029 39.2232 58.9829 29.5122 70.1635 32.002C66.3627 27.5758 61.7035 23.9529 56.4628 21.3486V21.3486Z" fill="#FDC305"/>
      <path d="M25.9313 27.6275C25.9313 27.6275 22.1211 26.1992 20.721 25.8123C20.0636 25.527 19.3377 25.4343 18.6289 25.545C17.9201 25.6558 17.258 25.9653 16.7208 26.4372C16.1728 26.9132 15.7346 27.5006 15.4361 28.1596C15.1375 28.8186 14.9856 29.5337 14.9907 30.2562C15.2021 30.7172 15.3631 31.1994 15.4708 31.6945C15.5208 32.1706 14.2707 32.121 13.4707 32.121C12.6706 32.121 12.5506 30.6926 13.1807 29.0162C13.6722 27.7272 14.2814 26.4855 15.0007 25.3064C9.55047 28.1235 0 34.6306 0 34.6306C2.73182 34.4672 5.47292 34.5468 8.1904 34.8686C13.4407 35.3944 13.1907 39.5009 13.1907 39.5009C15.0373 38.996 16.9192 38.628 18.8209 38.3999C20.941 38.261 21.091 40.5028 21.091 40.5028L21.6211 44.3316C22.4259 43.468 23.3134 42.684 24.2712 41.9907C25.5057 41.0105 27.0776 40.5477 28.6514 40.7012V40.7012L25.9313 27.6275Z" fill="#FDC305"/>
    </g>
    <g class="desktop">
      <path d="M65.2227 3.47176L56.7627 12.8356L55.5428 10.8616L63.6927 0L65.2227 3.47176Z" fill="#FDC305"/>
      <path d="M62.6531 17.1207L68.1931 13.0439L67.4131 9.33406L62.0131 14.1052L62.6531 17.1207Z" fill="#FDC305"/>
      <path d="M59.923 48.9716L66.053 52.1259L69.063 49.8048L62.373 47.077L59.923 48.9716Z" fill="#FDC305"/>
      <path d="M1.95 5.92182L5.02 2.58894L14.31 11.5163L13.09 13.7779L1.95 5.92182Z" fill="#FDC305"/>
      <path d="M7.38 16.1486L2.68 13.0439L0.279999 16.8827L5.43 19.2633L7.38 16.1486Z" fill="#FDC305"/>
      <path d="M13.91 52.1259L9.36 55.4489L12.16 59L16.18 55.0124L13.91 52.1259Z" fill="#FDC305"/>
    </g>
    <g class="tablet">
      <path d="M59.8824 23.6598C58.1585 19.5627 55.3821 15.9853 51.8299 13.284C48.2778 10.5828 44.0739 8.85208 39.6373 8.26439C35.2007 7.6767 30.6863 8.25256 26.544 9.93456C22.4017 11.6166 18.7761 14.346 16.0286 17.8508C13.2811 21.3556 11.5076 25.5134 10.8849 29.9099C10.2622 34.3064 10.8119 38.7879 12.4794 42.908C14.1469 47.0281 16.8739 50.6427 20.3886 53.3917C23.9033 56.1408 28.083 57.9281 32.5111 58.5758C31.9311 56.5026 31.341 54.2113 30.821 51.781C32.3338 52.7544 33.9261 53.6005 35.5812 54.3105V54.3105C35.5812 54.3105 35.7012 56.453 35.8613 58.8436C37.6496 58.8742 39.4362 58.7179 41.1915 58.3774C41.1462 58.1281 41.1462 57.8728 41.1915 57.6235C41.4815 55.7686 42.2816 52.4258 42.4416 50.2733C43.5949 49.2033 44.5733 47.9617 45.3417 46.5933V46.5933L45.2817 47.0297C44.7317 51.2553 43.5816 55.7686 42.8816 57.0184C42.655 57.4321 42.376 57.8155 42.0516 58.1592C45.6715 57.3168 49.0635 55.7037 51.9923 53.4316C54.9211 51.1595 57.3167 48.2827 59.013 45.0008C60.7092 41.7189 61.6656 38.1103 61.8157 34.4252C61.9658 30.7402 61.3062 27.0668 59.8824 23.6598V23.6598ZM58.4124 27.4192C57.9723 27.8458 57.0623 28.1334 56.9123 26.8439C56.7623 25.5544 56.7223 24.6518 56.7223 24.6518C56.7223 24.6518 54.7922 21.2494 54.0721 21.2098C53.3521 21.1701 48.2419 24.6518 46.8918 26.1694C45.7217 27.449 45.4917 27.3597 45.4917 29.6114C45.4917 31.3076 45.7117 37.7155 45.5917 42.6156L37.4413 44.7681C34.8795 45.4973 32.2743 46.0672 29.6409 46.4742L28.6409 40.6913H28.5009L25.9308 27.6275C25.9308 27.6275 22.1206 26.1992 20.7205 25.8123C20.0631 25.527 19.3372 25.4343 18.6283 25.545C17.9195 25.6558 17.2575 25.9653 16.7203 26.4372C16.1723 26.9132 15.7341 27.5006 15.4355 28.1596C15.137 28.8186 14.9851 29.5337 14.9902 30.2562C15.2016 30.7172 15.3625 31.1994 15.4702 31.6945C15.5202 32.1706 14.2702 32.121 13.4701 32.121C12.6701 32.121 12.5501 30.6926 13.1801 29.0162C13.6717 27.7272 14.2809 26.4855 15.0002 25.3064C15.5413 24.2532 16.2391 23.2868 17.0703 22.4398C17.0703 22.4398 17.2103 22.1025 18.3204 22.2017C19.4304 22.3009 25.6007 22.6282 25.6007 22.6282L25.6507 20.3765C32.3574 19.458 39.1215 19.0139 45.8917 19.0474C45.8917 19.6524 45.8917 20.2575 45.8917 20.8626C48.4561 19.7018 51.2174 19.0289 54.0321 18.8787C54.1828 18.8749 54.3319 18.9083 54.4663 18.9758C54.6007 19.0434 54.7161 19.1429 54.8022 19.2656C55.1422 19.6921 57.2123 22.2414 57.4523 22.6084C58.1246 23.5613 58.7358 24.5552 59.2824 25.5842C59.0951 26.2357 58.8011 26.8523 58.4124 27.4093V27.4192Z" fill="#FDC305"/>
      <path d="M56.4628 21.3486C56.9328 21.9438 57.3428 22.4695 57.4628 22.6282C58.1351 23.5812 58.7463 24.5751 59.2929 25.604C59.1027 26.2341 58.8123 26.8302 58.4329 27.3696C57.9929 27.7962 57.0828 28.0838 56.9328 26.7943C56.7828 25.5048 56.7228 24.6518 56.7228 24.6518C56.7228 24.6518 54.7927 21.2494 54.0727 21.2098C53.3526 21.1701 48.2424 24.6518 46.8923 26.1694C45.7223 27.449 45.4923 27.3597 45.4923 29.6114C45.4923 31.0993 45.6623 36.2077 45.6223 40.7508C47.4323 40.9492 50.0925 41.4451 50.8925 42.6156C50.8925 42.6156 50.6025 35.4936 58.7029 39.2232C58.7029 39.2232 58.9829 29.5122 70.1635 32.002C66.3627 27.5758 61.7035 23.9529 56.4628 21.3486V21.3486Z" fill="#F06351"/>
      <path d="M36.2616 37.8444C38.3327 37.8444 40.0116 36.179 40.0116 34.1247C40.0116 32.0703 38.3327 30.405 36.2616 30.405C34.1905 30.405 32.5116 32.0703 32.5116 34.1247C32.5116 36.179 34.1905 37.8444 36.2616 37.8444Z" fill="#FDC305"/>
      <path d="M41.2316 31.0993L38.1016 32.3987L39.2516 26.8142L31.7516 36.4954L34.8816 35.196L33.7316 40.7905L41.2316 31.0993ZM33.8416 34.8984L38.0016 29.5321L37.1916 33.4998L39.1916 32.6864L35.0016 38.0627L35.8116 34.0949L33.8416 34.8984Z" fill="#111111"/>
      <path d="M32.4415 33.4403C33.0601 33.4403 33.5616 32.9429 33.5616 32.3293C33.5616 31.7157 33.0601 31.2183 32.4415 31.2183C31.823 31.2183 31.3215 31.7157 31.3215 32.3293C31.3215 32.9429 31.823 33.4403 32.4415 33.4403Z" fill="#111111"/>
      <path d="M38.9619 37.4675C39.3982 37.4675 39.7519 37.1166 39.7519 36.6839C39.7519 36.2511 39.3982 35.9002 38.9619 35.9002C38.5256 35.9002 38.1719 36.2511 38.1719 36.6839C38.1719 37.1166 38.5256 37.4675 38.9619 37.4675Z" fill="#111111"/>
      <path d="M39.922 35.315C40.1153 35.315 40.272 35.1596 40.272 34.9678C40.272 34.7761 40.1153 34.6207 39.922 34.6207C39.7287 34.6207 39.572 34.7761 39.572 34.9678C39.572 35.1596 39.7287 35.315 39.922 35.315Z" fill="#111111"/>
      <path d="M25.9313 27.6275C25.9313 27.6275 22.1211 26.1992 20.721 25.8123C20.0636 25.527 19.3377 25.4343 18.6289 25.545C17.9201 25.6558 17.258 25.9653 16.7208 26.4372C16.1728 26.9132 15.7346 27.5006 15.4361 28.1596C15.1375 28.8186 14.9856 29.5337 14.9907 30.2562C15.2021 30.7172 15.3631 31.1994 15.4708 31.6945C15.5208 32.1706 14.2707 32.121 13.4707 32.121C12.6706 32.121 12.5506 30.6926 13.1807 29.0162C13.6722 27.7272 14.2814 26.4855 15.0007 25.3064C9.55047 28.1235 0 34.6306 0 34.6306C2.73182 34.4672 5.47292 34.5468 8.1904 34.8686C13.4407 35.3944 13.1907 39.5009 13.1907 39.5009C15.0373 38.996 16.9192 38.628 18.8209 38.3999C20.941 38.261 21.091 40.5028 21.091 40.5028L21.6211 44.3316C22.4259 43.468 23.3134 42.684 24.2712 41.9907C25.5057 41.0105 27.0776 40.5477 28.6514 40.7012V40.7012L25.9313 27.6275Z" fill="#F06351"/>
      <path d="M45.3515 46.5932C45.4815 45.5319 45.5515 44.1233 45.5915 42.566L37.4415 44.7185C34.8809 45.4645 32.2758 46.0509 29.6415 46.4742L30.7515 51.4339C30.7515 51.543 30.7515 51.6521 30.8215 51.7612C32.3342 52.7346 33.9264 53.5807 35.5815 54.2906C38.0002 53.1438 40.3038 51.7721 42.4615 50.194V50.2535C43.6095 49.1887 44.5844 47.954 45.3515 46.5932V46.5932Z" fill="#E55645"/>
    </g>
    <g class="mobile">
      <path d="M45.9323 19.0473C45.9729 13.5508 45.5043 8.0622 44.5322 2.65074C44.5322 2.65074 44.3822 1.36123 43.6622 2.41268C43.068 3.66967 42.6636 5.00658 42.4621 6.3804C38.1871 6.10833 33.896 6.22121 29.6415 6.71766C28.8214 3.98985 27.4214 2.74994 26.7513 3.07727C26.0813 3.40461 26.0013 6.3308 26.0013 6.3308L25.6713 20.3765C32.3846 19.4571 39.1554 19.0129 45.9323 19.0473V19.0473Z" fill="#F06351"/>
      <path d="M32.0016 15.9426C31.9516 15.8434 33.0016 16.6171 33.4116 16.8552C33.8216 17.0932 34.0216 17.2718 34.0216 17.4404C34.0216 17.609 33.7616 17.7777 33.4016 17.7777C33.0416 17.7777 32.4816 17.6586 32.4016 17.5198C32.3216 17.3809 33.0016 17.5198 33.3416 17.5198H33.6316C33.0159 17.073 32.4671 16.542 32.0016 15.9426Z" fill="black"/>
      <path d="M39.5019 16.0517C39.5019 16.0517 38.5019 17.3214 38.4119 17.3809C38.3219 17.4404 38.2419 17.7182 38.6019 17.6686C39.0152 17.6074 39.4231 17.5145 39.8219 17.3908C39.9319 17.3313 39.8919 17.1924 39.7019 17.2123C39.5119 17.2321 39.0219 17.2619 38.7019 17.3214L39.5519 16.0616C39.5519 16.0616 39.5819 15.9426 39.5019 16.0517Z" fill="black"/>
      <path d="M36.3617 22.1124C36.8253 21.9099 37.2084 21.5612 37.4517 21.1205C37.7317 20.4658 37.4517 20.2178 37.0117 20.1286C36.4064 20.019 35.7817 20.1394 35.2617 20.4658C34.8717 20.8328 34.9217 21.1899 35.2617 21.4577C35.5995 21.7205 35.969 21.9404 36.3617 22.1124V22.1124Z" fill="black"/>
      <path d="M36.0016 23.3622C35.8868 23.5872 35.7308 23.789 35.5416 23.9574C35.2568 24.1847 34.9067 24.3166 34.5416 24.3343C33.991 24.3879 33.4405 24.2319 33.0016 23.8979C32.8 23.7809 32.6206 23.6299 32.4716 23.4515C32.3716 23.3435 32.2486 23.2588 32.1116 23.2035C32.1116 23.2035 32.8616 27.2804 34.6816 27.935C36.5016 28.5897 36.8416 27.1812 36.8916 26.8042C36.9525 25.6753 36.6666 24.5546 36.0716 23.5904C36.0716 23.2928 36.0516 23.4912 36.0016 23.3622Z" fill="#F06351"/>
      <path d="M34.3016 24.4931C33.8336 24.4263 33.3841 24.2662 32.9802 24.0224C32.5763 23.7786 32.2264 23.4562 31.9516 23.0746C31.927 23.0473 31.9134 23.012 31.9134 22.9754C31.9134 22.9388 31.927 22.9035 31.9516 22.8762C31.9646 22.863 31.9802 22.8525 31.9973 22.8454C32.0145 22.8382 32.033 22.8345 32.0516 22.8345C32.0702 22.8345 32.0886 22.8382 32.1058 22.8454C32.123 22.8525 32.1385 22.863 32.1516 22.8762C32.399 23.2206 32.713 23.5128 33.0752 23.7358C33.4374 23.9589 33.8407 24.1084 34.2616 24.1756C34.5946 24.1508 34.9169 24.048 35.202 23.8755C35.4871 23.7031 35.7269 23.466 35.9016 23.1837L36.0416 22.9952L36.1416 23.2135C36.1416 23.2135 36.5216 23.9673 37.1416 24.007C37.7616 24.0467 38.2016 23.5904 38.7716 22.7274C38.7928 22.6958 38.8258 22.6739 38.8633 22.6665C38.9008 22.659 38.9398 22.6667 38.9716 22.6877C39.0034 22.7088 39.0255 22.7415 39.033 22.7787C39.0405 22.8159 39.0328 22.8546 39.0116 22.8861C38.3449 23.8582 37.7149 24.3244 37.1216 24.2847C36.8922 24.2546 36.6726 24.1739 36.4788 24.0486C36.285 23.9233 36.122 23.7566 36.0016 23.5606C35.8059 23.8316 35.5518 24.056 35.2577 24.2173C34.9636 24.3786 34.637 24.4728 34.3016 24.4931Z" fill="black"/>
      <path d="M45.8823 20.8427C44.077 22.4569 42.3769 24.183 40.792 26.0107C39.2133 27.8252 37.4318 29.4558 35.4818 30.8712C35.2617 30.3454 33.8517 29.3634 33.8517 29.3634C33.8517 29.3634 30.7115 27.2308 28.6514 25.5544C27.5378 24.6344 26.4886 23.6402 25.5113 22.5786L23.5112 22.4695C26.3983 26.6526 30.6281 29.7432 35.5118 31.2382C36.3718 31.0993 38.7919 29.3833 40.602 27.9846C42.7435 26.1782 44.7489 24.2189 46.6023 22.1223C47.1005 21.5351 47.4868 20.8629 47.7424 20.1385C46.6023 20.5154 45.8823 20.8427 45.8823 20.8427Z" fill="#F06351"/>
    </g>
    <g class="text">
      <path d="M85.6642 41.6611C84.634 40.1469 84.1414 38.3356 84.2642 36.5129V29.0735C84.1342 27.2374 84.6193 25.4102 85.6442 23.8758C86.5708 22.692 88.1542 22.1035 90.3942 22.1101C92.6342 22.1167 94.1508 22.6358 94.9442 23.6674C95.9115 24.9458 96.3835 26.5265 96.2742 28.1212V29.867H92.1342V27.9724C92.1286 27.4739 92.0851 26.9765 92.0042 26.4845C91.9541 26.1283 91.7892 25.7978 91.5342 25.5422C91.3767 25.4083 91.1939 25.3068 90.9964 25.2438C90.799 25.1808 90.5908 25.1574 90.3842 25.1752C90.0874 25.1312 89.7841 25.1791 89.5157 25.3122C89.2473 25.4453 89.0268 25.6572 88.8842 25.9191C88.6212 26.6157 88.5055 27.3585 88.5442 28.1014V37.5445C88.4985 38.2923 88.6322 39.0402 88.9342 39.7268C89.0784 39.9745 89.2925 40.175 89.5501 40.3036C89.8077 40.4323 90.0976 40.4835 90.3842 40.4509C90.6657 40.4904 90.9527 40.4407 91.2041 40.3089C91.4555 40.1771 91.6585 39.9699 91.7842 39.7169C92.0261 39.019 92.1313 38.2816 92.0942 37.5445V35.5607H96.2342V37.2767C96.356 38.895 95.9225 40.5066 95.0042 41.8495C94.1242 42.9406 92.6042 43.4763 90.4442 43.4763C88.2842 43.4763 86.5942 42.8811 85.6642 41.6611Z" fill="#111111"/>
      <path d="M101.915 22.3978H106.655L110.655 43.2283H106.715L106.005 38.6258H102.685L101.885 43.1986H97.8848L101.915 22.3978ZM105.565 36.0071L104.305 27.6352L103.055 36.0071H105.565Z" fill="#111111"/>
      <path d="M113.725 25.5323H110.485V22.3978H121.205V25.5323H118.005V43.1986H113.715L113.725 25.5323Z" fill="#111111"/>
      <path d="M129.616 22.3978H137.746V24.5602H132.546V31.4343H136.766V33.4876H132.546V41.1155H137.796V43.1986H129.616V22.3978Z" fill="#444444"/>
      <path d="M140.157 22.3978H142.157L148.157 36.2154V22.3978H150.597V43.2283H148.727L142.727 29.0239V43.1986H140.247L140.157 22.3978Z" fill="#444444"/>
      <path d="M153.828 22.3978H161.948V24.5602H156.748V31.4343H161.008V33.4876H156.788V41.1155H162.008V43.1986H153.828V22.3978Z" fill="#444444"/>
      <path d="M164.358 22.3978H168.578C170.241 22.265 171.897 22.7259 173.248 23.6972C174.248 24.5602 174.738 25.9687 174.738 27.9228C174.738 30.568 173.875 32.1848 172.148 32.7734L175.148 43.1986H172.308L169.558 33.438H167.288V43.1986H164.358V22.3978ZM168.358 31.3251C169.322 31.4176 170.285 31.1486 171.058 30.5713C171.372 30.2024 171.607 29.7736 171.748 29.3113C171.889 28.849 171.933 28.363 171.878 27.8832C171.898 27.2102 171.8 26.5389 171.588 25.8993C171.502 25.6635 171.369 25.4471 171.198 25.2631C171.026 25.0791 170.819 24.9312 170.588 24.828C169.939 24.5638 169.239 24.4453 168.538 24.4808H167.248V31.3648L168.358 31.3251Z" fill="#444444"/>
      <path d="M178.679 41.6611C177.723 40.0607 177.28 38.21 177.409 36.3542V29.4107C177.374 28.0708 177.543 26.7333 177.909 25.443C178.198 24.473 178.811 23.6297 179.649 23.0525C180.66 22.4481 181.83 22.1579 183.009 22.2192C183.771 22.1473 184.54 22.2414 185.262 22.495C185.984 22.7486 186.642 23.1555 187.189 23.6873C188.148 25.0205 188.602 26.6472 188.469 28.2799V29.0536H185.719V28.4089C185.738 27.6377 185.677 26.8667 185.539 26.1076C185.448 25.6211 185.177 25.186 184.779 24.8875C184.26 24.5836 183.66 24.4419 183.059 24.4808C182.406 24.4254 181.756 24.6247 181.249 25.0363C180.834 25.4267 180.563 25.9435 180.479 26.5044C180.352 27.3215 180.295 28.1477 180.309 28.9743V36.7014C180.229 37.8756 180.432 39.0518 180.899 40.1335C181.17 40.4662 181.515 40.7329 181.906 40.9133C182.297 41.0937 182.724 41.183 183.156 41.1744C183.587 41.1658 184.011 41.0595 184.394 40.8636C184.778 40.6677 185.111 40.3874 185.369 40.0442C185.851 38.9001 186.059 37.661 185.979 36.4237V34.9556H183.319V32.9023H188.619V43.1986H186.809L186.519 40.808C186.29 41.6022 185.796 42.2962 185.119 42.777C184.442 43.2578 183.621 43.4973 182.789 43.4565C182.007 43.5249 181.22 43.3961 180.501 43.0823C179.783 42.7684 179.156 42.2795 178.679 41.6611V41.6611Z" fill="#444444"/>
      <path d="M194.699 35.8583L190.169 22.3978H192.889L196.099 32.4361L199.259 22.3978H202.009L197.509 35.8583V43.1986H194.709L194.699 35.8583Z" fill="#444444"/>
    </g>
  </g>
  <defs>
    <clipPath id="clip0">
      <rect width="202" height="59" fill="white"/>
    </clipPath>
  </defs>
</svg>
